<svg width="207" height="81" viewBox="0 0 207 81" fill="none" xmlns="http://www.w3.org/2000/svg">
<path d="M20.12 60.8C19.6133 59.8667 18.88 59.16 17.92 58.68C16.9867 58.1733 15.88 57.92 14.6 57.92C12.3867 57.92 10.6133 58.6533 9.28001 60.12C7.94667 61.56 7.28001 63.4933 7.28001 65.92C7.28001 68.5067 7.97334 70.5333 9.36001 72C10.7733 73.44 12.7067 74.16 15.16 74.16C16.84 74.16 18.2533 73.7333 19.4 72.88C20.5733 72.0267 21.4267 70.8 21.96 69.2H13.28V64.16H28.16V70.52C27.6533 72.2267 26.7867 73.8133 25.56 75.28C24.36 76.7467 22.8267 77.9333 20.96 78.84C19.0933 79.7467 16.9867 80.2 14.64 80.2C11.8667 80.2 9.38667 79.6 7.20001 78.4C5.04001 77.1733 3.34667 75.48 2.12001 73.32C0.920007 71.16 0.320007 68.6933 0.320007 65.92C0.320007 63.1467 0.920007 60.68 2.12001 58.52C3.34667 56.3333 5.04001 54.64 7.20001 53.44C9.36001 52.2133 11.8267 51.6 14.6 51.6C17.96 51.6 20.7867 52.4133 23.08 54.04C25.4 55.6667 26.9333 57.92 27.68 60.8H20.12Z" fill="black"/>
<path d="M63.2688 51.92V80H56.4288V68.44H45.7888V80H38.9488V51.92H45.7888V62.92H56.4288V51.92H63.2688Z" fill="black"/>
<path d="M82.0466 51.92V80H75.2066V51.92H82.0466Z" fill="black"/>
<path d="M125.803 51.92V80H118.963V63.16L112.683 80H107.163L100.843 63.12V80H94.0034V51.92H102.083L109.963 71.36L117.763 51.92H125.803Z" fill="black"/>
<path d="M144.562 51.92V80H137.722V51.92H144.562Z" fill="black"/>
<path d="M170.839 80L164.999 69.4H163.359V80H156.519V51.92H167.999C170.212 51.92 172.092 52.3067 173.639 53.08C175.212 53.8533 176.386 54.92 177.159 56.28C177.932 57.6133 178.319 59.1067 178.319 60.76C178.319 62.6267 177.786 64.2933 176.719 65.76C175.679 67.2267 174.132 68.2667 172.079 68.88L178.559 80H170.839ZM163.359 64.56H167.599C168.852 64.56 169.786 64.2533 170.399 63.64C171.039 63.0267 171.359 62.16 171.359 61.04C171.359 59.9733 171.039 59.1333 170.399 58.52C169.786 57.9067 168.852 57.6 167.599 57.6H163.359V64.56Z" fill="black"/>
<path d="M196.453 57.4V63.08H205.613V68.36H196.453V74.52H206.813V80H189.613V51.92H206.813V57.4H196.453Z" fill="black"/>
<path d="M99.7653 6.34818C96.8561 6.52067 94.0561 7.51763 91.6925 9.22254C89.3289 10.9274 87.4994 13.2699 86.4178 15.976C85.3362 18.6822 85.0471 21.6403 85.5845 24.5047C86.1218 27.369 87.4633 30.0213 89.4521 32.1515C91.441 34.2817 93.9951 35.8018 96.8159 36.5341C99.6367 37.2665 102.608 37.1809 105.382 36.2873C108.156 35.3937 110.618 33.729 112.481 31.4878C114.344 29.2466 115.53 26.5215 115.902 23.631L109.831 22.8508C109.607 24.5889 108.894 26.2276 107.774 27.5753C106.653 28.923 105.173 29.924 103.505 30.4613C101.837 30.9987 100.05 31.0502 98.354 30.6098C96.6578 30.1694 95.122 29.2553 93.9261 27.9744C92.7301 26.6935 91.9234 25.0986 91.6003 23.3762C91.2772 21.6538 91.451 19.875 92.1014 18.2477C92.7518 16.6204 93.852 15.2119 95.2732 14.1867C96.6945 13.1615 98.3782 12.562 100.128 12.4582L99.7653 6.34818Z" fill="black"/>
<path d="M99.7654 6.34818C96.8562 6.52067 94.0561 7.51763 91.6925 9.22254C89.329 10.9274 87.4994 13.2699 86.4178 15.976C85.3362 18.6822 85.0472 21.6403 85.5845 24.5047C86.1218 27.369 87.4633 30.0213 89.4522 32.1515C91.441 34.2817 93.9951 35.8018 96.8159 36.5341C99.6367 37.2665 102.608 37.1809 105.382 36.2873C108.156 35.3937 110.618 33.729 112.481 31.4878C114.344 29.2466 115.53 26.5215 115.902 23.631L109.831 22.8508C109.607 24.5889 108.894 26.2276 107.774 27.5753C106.654 28.923 105.173 29.924 103.505 30.4613C101.837 30.9987 100.05 31.0502 98.3541 30.6098C96.6579 30.1694 95.122 29.2553 93.9261 27.9744C92.7301 26.6935 91.9235 25.0986 91.6004 23.3762C91.2773 21.6538 91.4511 19.875 92.1015 18.2477C92.7519 16.6204 93.852 15.2119 95.2733 14.1867C96.6946 13.1615 98.3783 12.562 100.128 12.4582L99.7654 6.34818Z" fill="black"/>
<path d="M110.681 20.1015C110.915 17.394 111.912 14.8342 113.555 12.7211C115.199 10.6081 117.421 9.02922 119.963 8.169C122.504 7.30878 125.26 7.20276 127.907 7.86333C130.555 8.5239 132.985 9.92377 134.914 11.8993C136.842 13.8749 138.19 16.3446 138.799 19.0197C139.409 21.6948 139.254 24.4648 138.354 27.006C137.454 29.5472 135.845 31.7547 133.716 33.3703C131.587 34.986 129.025 35.9432 126.33 36.1299L125.758 30.4167C127.379 30.3044 128.919 29.7289 130.2 28.7573C131.48 27.7858 132.447 26.4584 132.989 24.9303C133.53 23.4022 133.623 21.7365 133.257 20.1279C132.89 18.5193 132.08 17.0343 130.92 15.8463C129.76 14.6584 128.299 13.8166 126.707 13.4194C125.115 13.0221 123.458 13.0859 121.93 13.6032C120.401 14.1204 119.065 15.0699 118.077 16.3405C117.088 17.6111 116.489 19.1504 116.348 20.7785L110.681 20.1015Z" fill="#389C5F"/>
<circle cx="123.911" cy="21.1846" r="2.54216" fill="#389C5F"/>
<circle r="0.847385" transform="matrix(1 0 0 -1 123.911 21.1846)" fill="white"/>
<path d="M92.6072 40.1119C92.6072 39.6439 92.2278 39.2646 91.7598 39.2646C91.2918 39.2646 90.9124 39.6439 90.9124 40.1119C90.9124 40.5799 91.2918 40.9593 91.7598 40.9593C92.2278 40.9593 92.6072 40.5799 92.6072 40.1119Z" fill="white"/>
</svg>
