<svg width="111" height="59" viewBox="0 0 111 59" fill="none" xmlns="http://www.w3.org/2000/svg">
<path d="M46.2526 3.74575C44.536 3.84753 42.8839 4.43578 41.4892 5.44176C40.0946 6.44774 39.0151 7.82989 38.3769 9.42667C37.7387 11.0234 37.5681 12.7689 37.8852 14.459C38.2022 16.1491 38.9938 17.7141 40.1673 18.971C41.3408 20.2279 42.8479 21.1249 44.5123 21.557C46.1767 21.9891 47.9297 21.9386 49.5665 21.4113C51.2032 20.8841 52.6561 19.9018 53.7553 18.5794C54.8545 17.257 55.5546 15.649 55.7738 13.9435L52.1917 13.4831C52.0599 14.5087 51.6389 15.4756 50.9779 16.2708C50.317 17.066 49.4433 17.6567 48.4591 17.9737C47.4749 18.2908 46.4207 18.3212 45.4199 18.0613C44.419 17.8015 43.5128 17.2621 42.8071 16.5063C42.1015 15.7505 41.6255 14.8094 41.4348 13.7931C41.2442 12.7768 41.3467 11.7272 41.7305 10.7671C42.1143 9.80688 42.7634 8.97577 43.602 8.37085C44.4407 7.76593 45.4341 7.41219 46.4664 7.35099L46.2526 3.74575Z" fill="black"/>
<path d="M46.2526 3.74575C44.536 3.84753 42.8839 4.43578 41.4892 5.44176C40.0946 6.44774 39.0151 7.82989 38.3769 9.42667C37.7387 11.0234 37.5681 12.7689 37.8852 14.459C38.2022 16.1491 38.9938 17.7141 40.1673 18.971C41.3408 20.2279 42.8479 21.1249 44.5123 21.557C46.1767 21.9891 47.9297 21.9386 49.5665 21.4113C51.2032 20.8841 52.6561 19.9018 53.7553 18.5794C54.8545 17.257 55.5546 15.649 55.7738 13.9435L52.1917 13.4831C52.0599 14.5087 51.6389 15.4756 50.9779 16.2708C50.317 17.066 49.4433 17.6567 48.4591 17.9737C47.4749 18.2908 46.4207 18.3212 45.4199 18.0613C44.419 17.8015 43.5128 17.2621 42.8071 16.5063C42.1015 15.7505 41.6255 14.8094 41.4348 13.7931C41.2442 12.7768 41.3467 11.7272 41.7305 10.7671C42.1143 9.80688 42.7634 8.97577 43.602 8.37085C44.4407 7.76593 45.4341 7.41219 46.4664 7.35099L46.2526 3.74575Z" fill="black"/>
<path d="M46.2526 3.74575C44.536 3.84753 42.8839 4.43578 41.4892 5.44176C40.0946 6.44774 39.0151 7.82989 38.3769 9.42667C37.7387 11.0234 37.5681 12.7689 37.8852 14.459C38.2022 16.1491 38.9938 17.7141 40.1673 18.971C41.3408 20.2279 42.8479 21.1249 44.5123 21.557C46.1767 21.9891 47.9297 21.9386 49.5665 21.4113C51.2032 20.8841 52.6561 19.9018 53.7553 18.5794C54.8545 17.257 55.5546 15.649 55.7738 13.9435L52.1917 13.4831C52.0599 14.5087 51.6389 15.4756 50.9779 16.2708C50.317 17.066 49.4433 17.6567 48.4591 17.9737C47.4749 18.2908 46.4207 18.3212 45.4199 18.0613C44.419 17.8015 43.5128 17.2621 42.8071 16.5063C42.1015 15.7505 41.6255 14.8094 41.4348 13.7931C41.2442 12.7768 41.3467 11.7272 41.7305 10.7671C42.1143 9.80688 42.7634 8.97577 43.602 8.37085C44.4407 7.76593 45.4341 7.41219 46.4664 7.35099L46.2526 3.74575Z" fill="black"/>
<path d="M52.6934 11.8609C52.8313 10.2633 53.4195 8.7529 54.3893 7.50611C55.3591 6.25932 56.6704 5.3277 58.17 4.82012C59.6696 4.31255 61.2955 4.24999 62.8577 4.63976C64.4199 5.02953 65.8538 5.85553 66.9919 7.02121C68.13 8.18689 68.9252 9.64411 69.2847 11.2226C69.6441 12.801 69.5529 14.4355 69.0218 15.9349C68.4906 17.4344 67.5414 18.7369 66.285 19.6902C65.0287 20.6435 63.5172 21.2083 61.9271 21.3185L61.5899 17.9474C62.546 17.8811 63.4549 17.5415 64.2104 16.9683C64.9658 16.395 65.5366 15.6118 65.856 14.7101C66.1755 13.8085 66.2303 12.8256 66.0141 11.8765C65.798 10.9273 65.3198 10.0511 64.6354 9.35012C63.9511 8.64917 63.0888 8.15248 62.1494 7.9181C61.2101 7.68372 60.2324 7.72134 59.3306 8.02656C58.4289 8.33177 57.6404 8.89198 57.0572 9.6417C56.4741 10.3914 56.1203 11.2997 56.0374 12.2604L52.6934 11.8609Z" fill="#389C5F"/>
<path d="M11.088 32.92C10.822 32.43 10.437 32.059 9.933 31.807C9.443 31.541 8.862 31.408 8.19 31.408C7.028 31.408 6.097 31.793 5.397 32.563C4.697 33.319 4.347 34.334 4.347 35.608C4.347 36.966 4.711 38.03 5.439 38.8C6.181 39.556 7.196 39.934 8.484 39.934C9.366 39.934 10.108 39.71 10.71 39.262C11.326 38.814 11.774 38.17 12.054 37.33H7.497V34.684H15.309V38.023C15.043 38.919 14.588 39.752 13.944 40.522C13.314 41.292 12.509 41.915 11.529 42.391C10.549 42.867 9.443 43.105 8.211 43.105C6.755 43.105 5.453 42.79 4.305 42.16C3.171 41.516 2.282 40.627 1.638 39.493C1.008 38.359 0.693 37.064 0.693 35.608C0.693 34.152 1.008 32.857 1.638 31.723C2.282 30.575 3.171 29.686 4.305 29.056C5.439 28.412 6.734 28.09 8.19 28.09C9.954 28.09 11.438 28.517 12.642 29.371C13.86 30.225 14.665 31.408 15.057 32.92H11.088ZM33.7411 28.258V43H30.1501V36.931H24.5641V43H20.9731V28.258H24.5641V34.033H30.1501V28.258H33.7411ZM43.5994 28.258V43H40.0084V28.258H43.5994Z" fill="black"/>
<path d="M66.5718 28.258V43H62.9808V34.159L59.6838 43H56.7858L53.4678 34.138V43H49.8768V28.258H54.1188L58.2558 38.464L62.3508 28.258H66.5718ZM76.4201 28.258V43H72.8291V28.258H76.4201ZM90.2155 43L87.1495 37.435H86.2885V43H82.6975V28.258H88.7245C89.8865 28.258 90.8735 28.461 91.6855 28.867C92.5115 29.273 93.1275 29.833 93.5335 30.547C93.9395 31.247 94.1425 32.031 94.1425 32.899C94.1425 33.879 93.8625 34.754 93.3025 35.524C92.7565 36.294 91.9445 36.84 90.8665 37.162L94.2685 43H90.2155ZM86.2885 34.894H88.5145C89.1725 34.894 89.6625 34.733 89.9845 34.411C90.3205 34.089 90.4885 33.634 90.4885 33.046C90.4885 32.486 90.3205 32.045 89.9845 31.723C89.6625 31.401 89.1725 31.24 88.5145 31.24H86.2885V34.894ZM103.663 31.135V34.117H108.472V36.889H103.663V40.123H109.102V43H100.072V28.258H109.102V31.135H103.663Z" fill="#389C5F"/>
<circle cx="60.5" cy="12.5" r="1.5" fill="#389C5F"/>
<circle r="0.5" transform="matrix(1 0 0 -1 60.5 12.5)" fill="white"/>
<path d="M42.029 23.6681C42.029 23.3919 41.8051 23.1681 41.529 23.1681C41.2528 23.1681 41.029 23.3919 41.029 23.6681C41.029 23.9442 41.2528 24.1681 41.529 24.1681C41.8051 24.1681 42.029 23.9442 42.029 23.6681Z" fill="white"/>
</svg>
